<svg xmlns="http://www.w3.org/2000/svg" width="817.5" height="143.615" viewBox="0 0 817.5 143.615" stroke-width="1.5" stroke="#ffffff" fill="#ffffff" stroke-linecap="round" stroke-linejoin="round">
    <g transform="translate(-45.5 -111.985)">
        <path d="M335.8,141.5h29.7V153c5.5-7,13.2-13.4,25.1-13.4,11.2,0,19.8,5,24.3,13.7,7.3-8.4,15.9-13.7,28.2-13.7,17.9,0,28.9,11.2,28.9,30.9v55.4H442.4V180c0-9.2-4.5-14-11.6-14-7,0-12.2,4.9-12.2,14v45.9H389V180c0-9.2-4.5-14-11.6-14-7,0-12,4.9-12,14v45.9H335.7V141.5Z"/>
        <path d="M487.4,141.5H517v84.4H487.3V141.5Z"/>
        <path d="M526.3,215.3l11.1-17.9c9.7,6.4,20.3,9.6,29,9.6,5.1,0,7.5-1.6,7.5-4.5v-.3c0-3.3-4.7-4.7-13.6-7.2-16.7-4.4-29.9-10-29.9-27v-.3c0-17.9,14.4-27.9,33.8-27.9,12.3,0,25.1,3.6,34.8,9.8l-10.1,18.7c-8.7-4.8-18.3-7.8-25-7.8-4.5,0-6.9,1.7-6.9,4.1v.3c0,3.3,4.8,4.8,13.7,7.5,16.7,4.7,30,10.5,30,26.8v.3c0,18.5-13.9,28.2-34.5,28.2A68.046,68.046,0,0,1,526.3,215.3Z"/>
        <path d="M615.5,199.7V165.4h-10V141.5h10V120.1h29.6v21.4h19.7v23.9H645.1v28.5c0,5.9,2.7,8.4,8.1,8.4a26.121,26.121,0,0,0,11.2-2.8v23.2c-5.3,3-12.3,4.8-20.6,4.8C626.1,227.6,615.5,219.8,615.5,199.7Z"/>
        <path d="M677.9,141.5h29.6v17c4.8-11.5,12.6-19.1,26.7-18.4v31.2h-2.5c-15.4,0-24.2,8.9-24.2,28.4v26.2H677.9Z"/>
        <path d="M735.5,201.7v-.3c0-17.5,13.3-26.5,33.1-26.5a65.606,65.606,0,0,1,20.3,3.3v-1.4c0-8.7-5.5-13.7-16.9-13.7a60.37,60.37,0,0,0-23.2,4.6l-6.1-20.9a84.887,84.887,0,0,1,34.2-6.6c15.1,0,25.4,3.6,32.1,10.3,6.4,6.2,9.1,15,9.1,26.8v48.5H788.8v-8.7c-5.8,6.4-13.7,10.6-24.8,10.6C747.8,227.7,735.5,218.6,735.5,201.7Zm53.7-6.4v-3.9a31.8,31.8,0,0,0-11.5-2.2c-8.6,0-13.6,4.2-13.6,10.5v.3c0,5.8,4.4,9.2,10.4,9.2C783.1,209.2,789.2,203.7,789.2,195.3Z"/>
        <path d="M833.3,112H863V225.9H833.3Z"/>
        <path d="M306.1,217.3a2.268,2.268,0,0,0-1.1-1.6c-3.6-2.4-36.9-23.5-95.3-33.1,6.8-7.9,12.2-13.8,16.7-18.5a361.36,361.36,0,0,1,56-47.6,2.475,2.475,0,0,0,1-1.6,2.56,2.56,0,0,0-.4-1.9,2.345,2.345,0,0,0-2.2-1h-.6a396.362,396.362,0,0,0-142.1,67.1,1.552,1.552,0,0,0-.3,2.1,1.682,1.682,0,0,0,2.1.3,392.47,392.47,0,0,1,133.4-64.6,347.672,347.672,0,0,0-50.4,43.8c-6.4,6.6-13.5,14.7-19,21.1a328.711,328.711,0,0,0-47.4-3.5c-1.8,0-3.7,0-5.5.1a2.451,2.451,0,1,0,0,4.9h3.8a349.337,349.337,0,0,1,44.9,3.3c-.7.8-1.4,1.6-2.1,2.5l-.9,1.1c-7.3,8.5-16.2,18.9-20.9,23.2a38.514,38.514,0,0,1,4.4-9c1.3-1.9,2.8-3.8,4.3-5.7l.2-.2c3.6-4.5,5.9-7.5,4.9-10.1a3.794,3.794,0,0,0-2.2-2.1,8,8,0,0,0-2.4-.4c-4.4,0-11,2.7-15.3,5a79.289,79.289,0,0,0-14.8,10.4c2.1-3.9,2.7-6.1,2.2-7.9a3.458,3.458,0,0,0-2.3-2.4,4.638,4.638,0,0,0-1.7-.3c-3.5,0-9.9,2.9-19,8.7-3.6,2.3-7.4,4.9-11.5,7.8l.6-1.2c1.8-4,2.1-6.9.9-8.9-1.7-2.7-5.6-3-12.6-.7A46.943,46.943,0,0,0,97.2,204c-6.4,4.6-12.6,9.5-18,14.2-12.2,10.5-22.7,22-33,33.2a.1.1,0,0,1-.1.1,2.482,2.482,0,0,0,1.9,4.1,2.837,2.837,0,0,0,1.7-.7c.1,0,.1,0,.2-.1,10.2-11.1,20.7-22.6,32.6-32.8,5.3-4.6,11.4-9.4,17.7-13.9a43.8,43.8,0,0,1,12.9-6.9c4.4-1.4,6.2-1.3,6.8-1.2a11.58,11.58,0,0,1-1.2,4c-3.5,7.6-10.7,14.5-13.7,17.1l-.1.1-.1.1a2.348,2.348,0,0,0-.2,3.5,2.49,2.49,0,0,0,1.8.9,2.934,2.934,0,0,0,1.7-.6c.1,0,.1-.1.2-.1a287.521,287.521,0,0,1,28.5-21.3c7.8-4.9,12.9-7.2,15.3-7.8-.5,1.4-1.9,4.2-5.7,10-1.1,1.7-2.2,3.3-3.2,4.8l-.5.7c-1.1,1.6-2,2.9-2.5,3.7-1.1,1.8-1.1,3.2.1,4.1a2.4,2.4,0,0,0,1.5.6c1.2,0,2.2-1.1,4.3-3.2,4.5-4.6,14.9-15.3,25.9-21.2a38.565,38.565,0,0,1,12.2-4.4c-.9,1.3-2.3,3.2-3.4,4.5l-.2.2c-1.5,1.9-3.1,3.9-4.5,6-3.9,5.9-5.3,10.9-5.5,12.3-.3,1.1-1.1,4.7,1.5,6a3.708,3.708,0,0,0,1.4.4c3.6,0,8.7-5.4,27-26.9l1.8-2.2c1-1.2,2.1-2.4,3.1-3.7,23.1,3.5,66.2,12.4,96.7,32.5a2.5,2.5,0,0,0,3.4-.7A2.648,2.648,0,0,0,306.1,217.3Z"/>
    </g>
</svg>